# xmcd CD database file generated by OrangeCD 6.2
#
# Track frame offsets:
#	150
#	9692
#	26541
#	38742
#	67262
#	84481
#	105767
#	121105
#	126659
#	139322
#	151309
#	155617
#
# Disc length: 2378 seconds
#
# Revision: 1
# Processed by: cddbd v1.5.2PL0 Copyright (c) Steve Scherf et al.
# Submitted via: OrangeCD 6.2
#
DISCID=9b09480c
DTITLE=The Coal Porters - Turn The Water On, Boy
DYEAR=2008
DGENRE=
TTITLE0=Final Wild Son
TTITLE1=Mr. Guthrie
TTITLE2=The Sound Of Life
TTITLE3=Adam and Evil
TTITLE4=Behind My Eyes
TTITLE5=Silver Raven
TTITLE6=Tea and Tobacco
TTITLE7=Butterfly Hearts
TTITLE8=These Four Walls
TTITLE9=Here In The Dock
TTITLE10=Fox Ate My Shoes
TTITLE11=A Light From The Mountains
EXTD=
EXTT0=
EXTT1=
EXTT2=
EXTT3=
EXTT4=
EXTT5=
EXTT6=
EXTT7=
EXTT8=
EXTT9=
EXTT10=
EXTT11=
PLAYORDER=
